<?xml version="1.0" standalone="no"?>
<!DOCTYPE svg PUBLIC "-//W3C//DTD SVG 20010904//EN"
 "http://www.w3.org/TR/2001/REC-SVG-20010904/DTD/svg10.dtd">
<svg version="1.0" xmlns="http://www.w3.org/2000/svg"
 width="16.000000pt" height="16.000000pt" viewBox="0 0 16.000000 16.000000"
 preserveAspectRatio="xMidYMid meet">
<metadata>
Created by potrace 1.11, written by Peter Selinger 2001-2013
</metadata>
<g transform="translate(0.000000,16.000000) scale(0.006154,-0.006154)"
fill="#000000" stroke="none">
<path d="M1695 2146 c-6 -15 -56 -198 -60 -216 -2 -8 -40 -154 -84 -325 -45
-170 -83 -319 -85 -330 -2 -11 -15 -66 -30 -121 -14 -56 -27 -112 -30 -125 -4
-21 -19 -87 -31 -129 -2 -8 -13 -55 -25 -105 -11 -49 -23 -98 -26 -108 -5 -16
6 -17 172 -15 l178 3 8 35 c4 19 10 49 13 65 4 25 11 56 20 95 1 3 5 25 10 50
5 25 9 47 10 50 1 3 5 20 9 38 l8 32 187 0 188 0 38 -191 39 -191 90 6 c50 3
129 9 176 12 46 3 86 6 87 8 10 9 -335 1374 -367 1453 -9 21 -12 21 -250 21
-170 0 -243 -4 -245 -12z m300 -486 c20 -91 40 -183 46 -205 11 -43 16 -70 25
-126 l6 -35 -134 2 c-73 1 -134 2 -134 3 -1 0 7 37 17 80 10 44 21 94 24 113
3 18 14 69 25 113 10 44 21 97 24 119 4 21 8 41 10 45 3 3 7 27 11 51 8 55 27
71 37 32 4 -15 24 -101 43 -192z"/>
<path d="M503 1906 c-44 -14 -92 -45 -132 -83 -13 -13 -25 -22 -26 -21 -2 2
-11 58 -15 86 0 5 -244 -10 -282 -17 -3 0 -5 -45 -3 -98 2 -54 4 -324 4 -600
l1 -503 155 0 c117 0 155 3 156 13 1 6 1 215 0 464 l-2 451 46 18 c39 14 49
15 71 4 13 -8 28 -25 31 -39 4 -14 7 -225 7 -468 l0 -443 113 0 113 0 0 465
c0 463 0 464 21 476 33 17 87 15 107 -4 16 -16 17 -57 20 -477 l3 -460 154 0
155 0 0 48 c3 350 -1 967 -6 1002 -22 162 -129 229 -291 181 -38 -11 -86 -42
-127 -83 l-29 -29 -13 28 c-17 37 -44 68 -72 82 -35 18 -113 21 -159 7z"/>
</g>
</svg>
